<svg width="68" height="21" fill="none" xmlns="http://www.w3.org/2000/svg"><path d="M13.36 0v20.05h-3.29V5.82l-1.1 1.39-2.15 2.76-.09.1-.14-.1-2.15-2.76-1.1-1.43v14.27H0V0h3.34l3.39 4.3L10.07 0h3.3zM8.3 10.07l-.1-.1.1.1z" fill="#0AD9C6"/><path d="M8.45 9.97l-.1.1H8.3l.15-.1zM38.2 5.61l-9.12 6.7 2.12 2.88 9.12-6.7-2.11-2.88z" fill="#0AD9C6"/><path d="M26.67 3a7.04 7.04 0 100 14.09 7.04 7.04 0 000-14.09zm0 10.27a3.22 3.22 0 110-6.45 3.22 3.22 0 010 6.45zM43.64 3a7.04 7.04 0 107.04 7.04A7.1 7.1 0 0043.64 3zm0 10.27a3.22 3.22 0 110-6.45 3.22 3.22 0 010 6.45zM67.6.24v20.04h-3.34V9.88l-2.82-2.67-2.1-2.06v15.13H56V.24h3.34L63.25 4l1 .95V.24h3.35z" fill="#0AD9C6"/><path fill="#0AD9C6" d="M37 3h6v4h-6z"/></svg>