<svg width="17" height="24" fill="none" xmlns="http://www.w3.org/2000/svg"><path d="M1.46 6.74c-.09-1.2.18-2.38.88-3.33a4.12 4.12 0 012.36-1.6c.8-.24 1.34.05 1.57.95.33 1.34.8 2.68.98 4.1.05.61-.35 1.5-.78 1.94-1.1 1.08-.87 1.86-.04 3.48.26.53.66 1.43 1.46 2.63.83 1.2 1.26 1.85 2.33 1.3 1.18-.59 2.04-.2 2.93.75.6.7 1.27 1.29 1.87 1.98.87 1.03.83 1.74.15 2.47-1.23 1.34-3.26 1.78-4.77.88a9.7 9.7 0 01-2.32-1.87A29.96 29.96 0 011.8 8.88c-.2-.74-.3-1.48-.34-2.14z" stroke="#0AD9C6" stroke-width="2" stroke-miterlimit="10"/></svg>
